<svg enable-background="new 0 0 512 512" height="512" viewBox="0 0 512 512" width="512" xmlns="http://www.w3.org/2000/svg"><g fill="#03a0e4"><path d="m499.157 30.771-60.92 147.316-55.234 133.565-46.028 111.304-31.136 75.293c-3.441 8.324-11.557 13.751-20.559 13.751h-58.558c-9.003 0-17.119-5.427-20.56-13.751l-31.137-75.293-46.028-111.304-55.233-133.565-60.921-147.316c-6.06-14.655 4.707-30.771 20.561-30.771h445.192c15.853 0 26.621 16.116 20.561 30.771z"/><path d="m275.469 467.478c0 4.611-3.735 8.348-8.344 8.348h-22.251c-4.609 0-8.344-3.736-8.344-8.348s3.735-8.348 8.344-8.348h22.251c4.609 0 8.344 3.737 8.344 8.348z"/><path d="m499.157 30.771-60.92 147.316-55.234 133.565-46.028 111.304h-161.951l-46.028-111.304-55.232-133.565-60.921-147.316c-6.06-14.655 4.707-30.771 20.561-30.771h445.192c15.853 0 26.621 16.116 20.561 30.771z"/><path d="m292.157 367.304c0 4.611-3.735 8.348-8.344 8.348h-55.627c-4.609 0-8.344-3.736-8.344-8.348 0-4.611 3.735-8.348 8.344-8.348h55.627c4.609.001 8.344 3.737 8.344 8.348z"/><path d="m499.157 30.771-60.92 147.316-55.234 133.565h-254.007l-55.232-133.565-60.921-147.316c-6.06-14.655 4.707-30.771 20.561-30.771h445.192c15.853 0 26.621 16.116 20.561 30.771z"/><path d="m319.97 228.174c0 4.611-3.735 8.348-8.345 8.348h-111.253c-4.609 0-8.344-3.736-8.344-8.348s3.735-8.348 8.344-8.348h111.253c4.61 0 8.345 3.737 8.345 8.348zm-30.594 25.043h-66.751c-4.609 0-8.344 3.736-8.344 8.348 0 4.611 3.735 8.348 8.344 8.348h66.751c4.609 0 8.345-3.736 8.345-8.348-.001-4.611-3.736-8.348-8.345-8.348z"/><path d="m33.404 0h445.192c15.853 0 26.621 16.116 20.56 30.771l-60.919 147.316h-364.473l-60.921-147.316c-6.06-14.655 4.707-30.771 20.561-30.771z"/><path d="m331.096 72.348c0 4.611-3.735 8.348-8.345 8.348h-133.502c-4.609 0-8.344-3.736-8.344-8.348s3.734-8.348 8.344-8.348h133.503c4.609 0 8.344 3.736 8.344 8.348zm-30.595 25.043h-89.002c-4.609 0-8.344 3.736-8.344 8.348s3.735 8.348 8.344 8.348h89.002c4.609 0 8.344-3.736 8.344-8.348s-3.735-8.348-8.344-8.348z"/></g></svg>