<svg enable-background="new 0 0 224.075 224.075" height="512" viewBox="0 0 224.075 224.075" width="512" xmlns="http://www.w3.org/2000/svg"><g fill="#0b92cd" transform="translate(0 -562.36)"><path d="m63 590.201h146.9c18.9.5 18.9-28.3 0-27.8h-146.9c-18.9-.5-18.9 28.3 0 27.8z"/><path d="m209.9 660.501h-146.9c-18.9-.5-18.9 28.3 0 27.8h146.9c18.9.5 18.9-28.3 0-27.8z"/><path d="m209.9 758.101h-146.9c-18.9 0-18.9 28.3 0 28.3h146.9c18.9 0 18.9-28.3 0-28.3z"/><path d="m14.2 758.001c-7.9 0-14.2 6.3-14.2 14.2s6.3 14.2 14.2 14.2c7.3 0 13.6-6.3 13.6-14.2 0-7.8-6.3-14.1-13.6-14.2z"/><path d="m14.2 660.501c-7.9 0-14.2 6.3-14.2 13.6 0 7.9 6.3 14.2 14.2 14.2 7.3 0 13.6-6.3 13.6-14.2 0-7.3-6.3-13.6-13.6-13.6z"/><path d="m14.2 562.401c-7.9 0-14.2 6.3-14.2 14.2 0 7.3 6.3 13.6 14.2 13.6 7.3 0 13.6-6.3 13.6-13.6 0-7.9-6.3-14.2-13.6-14.2z"/></g></svg>