<svg enable-background="new 0 0 512 512" height="512" viewBox="0 0 512 512" width="512" xmlns="http://www.w3.org/2000/svg"><g fill="#5d5d5d"><path d="m256 0c-141.391 0-256 114.609-256 256s114.609 256 256 256 256-114.609 256-256-114.609-256-256-256zm0 472c-119.297 0-216-96.703-216-216s96.703-216 216-216 216 96.703 216 216-96.703 216-216 216z"/><path d="m279.5 224s-58.797-.922-101 26.438c-42.203 27.39-52.625 85.562-52.625 85.562s37.875-43.516 75.219-57.594c40.844-15.406 78.406-6.406 78.406-6.406v48l96-64-96-80z"/></g></svg>